# xmcd CD database file
#
# Track frame offsets:
#	150
#	23062
#	44555
#	65312
#	83690
#	102552
#	123225
#	140850
#	159427
#	184897
#
# Disc length: 2732 seconds
#
# Revision: 1
# Processed by: cddbd v1.4PL0 Copyright (c) Steve Scherf et al.
# Submitted via: CDex 1.51
#
DISCID=870aaa0a
DTITLE=Dave Camp - Night Fall
DYEAR=1997
DGENRE=Jazz
TTITLE0=Your Eyes
TTITLE1=Nightfall
TTITLE2=Spy Vs Spy
TTITLE3=Feelin' Good
TTITLE4=Love Garage
TTITLE5=Losing You
TTITLE6=The Farther Star
TTITLE7=Dave's House
TTITLE8=Redemption
TTITLE9=Party of Two
EXTD=YEAR: 1997
EXTT0=
EXTT1=
EXTT2=
EXTT3=
EXTT4=
EXTT5=
EXTT6=
EXTT7=
EXTT8=
EXTT9=
PLAYORDER=
